<svg width="220" height="55" viewBox="0 0 220 55" fill="none" xmlns="http://www.w3.org/2000/svg">
<g clip-path="url(#clip0_28_18)">
<path d="M47.1723 0H15.7327V13.7564H47.1723V0Z" fill="#CBE5C5"/>
<path d="M31.4396 13.7563H0V27.5128H31.4396V13.7563Z" fill="#CBE5C5"/>
<path d="M47.1723 27.4873H15.7327V41.2437H47.1723V27.4873Z" fill="#CBE5C5"/>
<path d="M31.4396 41.2437H0V55.0001H31.4396V41.2437Z" fill="#CBE5C5"/>
<path d="M79.6952 26.3834C80.5721 24.8692 81.8359 23.6629 83.4091 22.816C85.0082 21.969 86.8394 21.5327 88.9027 21.5327C90.966 21.5327 92.7714 21.969 94.3447 22.816C95.9437 23.6629 97.1817 24.8692 98.0586 26.3834C98.9355 27.8976 99.3998 29.6685 99.3998 31.6447C99.3998 33.6209 98.9613 35.3918 98.0586 36.906C97.1817 38.4459 95.9179 39.6265 94.3447 40.4991C92.7456 41.3461 90.9402 41.7824 88.9027 41.7824C86.8652 41.7824 85.0082 41.3461 83.4091 40.4991C81.8101 39.6522 80.5721 38.4459 79.6952 36.906C78.8183 35.3661 78.354 33.6209 78.354 31.6447C78.354 29.6685 78.7925 27.9233 79.6952 26.3834ZM84.1571 36.4441C85.3177 37.7016 86.9168 38.3176 88.9285 38.3176C90.9402 38.3176 92.5135 37.7016 93.6483 36.4441C94.7831 35.1865 95.3505 33.5952 95.3505 31.6447C95.3505 29.6942 94.7831 28.1286 93.6483 26.871C92.5135 25.6134 90.9402 24.9975 88.9285 24.9975C86.9168 24.9975 85.3177 25.6134 84.1571 26.871C82.9965 28.1286 82.4033 29.7198 82.4033 31.6447C82.4033 33.5696 82.9965 35.1865 84.1571 36.4441Z" fill="#CBE5C5"/>
<path d="M104.352 41.3977V25.3827H100.612V21.918H105.873C106.647 21.918 107.266 22.0976 107.705 22.4569C108.143 22.8162 108.375 23.3039 108.375 23.9712V27.0253C108.839 25.4341 109.665 24.2021 110.877 23.3039C112.063 22.4056 113.611 21.9693 115.519 21.9693H117.222V25.4341H114.256C112.373 25.4341 110.903 26.127 109.871 27.4873C108.814 28.8475 108.298 30.798 108.298 33.2875V41.449H104.326L104.352 41.3977Z" fill="#CBE5C5"/>
<path d="M134.218 41.3977H126.842C124.933 41.3977 123.979 40.4481 123.979 38.5489V25.3827H119.594V21.918H123.979V17.6576L128.028 16.939V21.918H133.47V25.3827H128.028V37.9072H134.218V41.372V41.3977Z" fill="#CBE5C5"/>
<path d="M78.0187 13.4741H70.6424C68.7339 13.4741 67.7796 14.4237 67.7796 16.3229V21.9179H64.143V25.3827H67.7796V41.3976H71.8288V25.3827H77.2708V21.9179H71.8288V16.9389H78.0187V13.4741Z" fill="#CBE5C5"/>
<path d="M139.66 41.3977V25.3827H135.92V21.918H141.182C141.955 21.918 142.574 22.0976 143.013 22.4569C143.451 22.8162 143.683 23.3039 143.683 23.9712V27.0253C144.148 25.4341 144.973 24.2021 146.185 23.3039C147.372 22.4056 148.919 21.9693 150.828 21.9693H152.53V25.4341H149.564C147.681 25.4341 146.211 26.127 145.179 27.4873C144.122 28.8475 143.606 30.798 143.606 33.2875V41.449H139.634L139.66 41.3977Z" fill="#CBE5C5"/>
<path d="M154.954 26.1267C155.754 24.6382 156.863 23.4833 158.307 22.7133C159.751 21.9434 161.428 21.5327 163.336 21.5327C166.354 21.5327 168.727 22.3797 170.481 24.0735C172.234 25.7674 173.111 28.1029 173.111 31.1057V32.466H157.766C157.843 34.3139 158.385 35.8024 159.365 36.906C160.345 38.0353 161.737 38.5742 163.543 38.5742C165.09 38.5742 166.328 38.2149 167.283 37.522C168.237 36.829 168.882 35.8281 169.191 34.5448H173.189C172.776 36.6237 171.77 38.3433 170.197 39.7292C168.624 41.0894 166.431 41.7824 163.62 41.7824C161.531 41.7824 159.751 41.3204 158.256 40.4478C156.785 39.5495 155.651 38.3176 154.903 36.752C154.155 35.1865 153.768 33.4156 153.768 31.4394C153.768 29.4632 154.155 27.6153 154.954 26.1011V26.1267ZM169.14 29.8482C169.036 28.2056 168.469 26.9224 167.437 26.0241C166.406 25.1258 165.039 24.6638 163.388 24.6638C161.815 24.6638 160.525 25.1258 159.494 26.0241C158.462 26.948 157.894 28.2056 157.766 29.8482H169.14Z" fill="#CBE5C5"/>
<path d="M178.76 39.8321C177.135 38.5232 176.31 36.6753 176.31 34.2371H180.359C180.359 35.7257 180.823 36.8293 181.751 37.5736C182.68 38.3179 184.021 38.6772 185.775 38.6772C187.116 38.6772 188.096 38.4719 188.715 38.0612C189.334 37.6506 189.644 36.9833 189.644 36.1107C189.644 35.5204 189.437 35.0328 189.025 34.6478C188.612 34.2628 187.967 33.9292 187.039 33.6468L181.623 32.1326C180.281 31.7733 179.172 31.183 178.295 30.3361C177.419 29.5148 176.98 28.3599 176.98 26.9483C176.98 25.2287 177.676 23.8942 179.043 22.9446C180.41 21.995 182.319 21.5073 184.743 21.5073C187.374 21.5073 189.463 22.0976 190.959 23.2525C192.455 24.4075 193.203 26.05 193.203 28.1802H189.154C189.154 27.051 188.767 26.1783 188.019 25.5367C187.271 24.8951 186.188 24.5871 184.769 24.5871C183.608 24.5871 182.706 24.7924 182.035 25.2287C181.365 25.665 181.029 26.204 181.029 26.8456C181.029 27.4359 181.236 27.9492 181.648 28.3342C182.061 28.7192 182.732 29.0528 183.608 29.3095L188.199 30.5671C189.979 31.029 191.32 31.722 192.249 32.5946C193.177 33.4672 193.641 34.6734 193.641 36.1877C193.641 37.9842 192.971 39.3701 191.604 40.3197C190.237 41.295 188.251 41.757 185.646 41.757C182.628 41.757 180.307 41.1154 178.682 39.8064L178.76 39.8321Z" fill="#CBE5C5"/>
<path d="M199.109 39.8321C197.484 38.5232 196.659 36.6753 196.659 34.2371H200.708C200.708 35.7257 201.172 36.8293 202.101 37.5736C203.029 38.3179 204.37 38.6772 206.124 38.6772C207.465 38.6772 208.445 38.4719 209.064 38.0612C209.683 37.6506 209.993 36.9833 209.993 36.1107C209.993 35.5204 209.787 35.0328 209.374 34.6478C208.961 34.2628 208.317 33.9292 207.388 33.6468L201.972 32.1326C200.631 31.7733 199.522 31.183 198.645 30.3361C197.768 29.5148 197.329 28.3599 197.329 26.9483C197.329 25.2287 198.026 23.8942 199.393 22.9446C200.76 21.995 202.668 21.5073 205.093 21.5073C207.723 21.5073 209.812 22.0976 211.308 23.2525C212.804 24.4075 213.552 26.05 213.552 28.1802H209.503C209.503 27.051 209.116 26.1783 208.368 25.5367C207.62 24.8951 206.537 24.5871 205.118 24.5871C203.958 24.5871 203.055 24.7924 202.384 25.2287C201.714 25.665 201.379 26.204 201.379 26.8456C201.379 27.4359 201.585 27.9492 201.998 28.3342C202.41 28.7192 203.081 29.0528 203.958 29.3095L208.549 30.5671C210.328 31.029 211.669 31.722 212.598 32.5946C213.526 33.4672 213.991 34.6734 213.991 36.1877C213.991 37.9842 213.32 39.3701 211.953 40.3197C210.586 41.295 208.6 41.757 205.995 41.757C202.978 41.757 200.656 41.1154 199.032 39.8064L199.109 39.8321Z" fill="#CBE5C5"/>
<path d="M218.917 37.753C219.252 37.9327 219.51 38.215 219.716 38.523C219.897 38.8566 220 39.2159 220 39.6009C220 39.9859 219.897 40.3708 219.716 40.7045C219.51 41.0381 219.252 41.2948 218.917 41.5001C218.581 41.7054 218.22 41.7824 217.834 41.7824C217.447 41.7824 217.086 41.6798 216.75 41.5001C216.415 41.2948 216.157 41.0381 215.951 40.7045C215.744 40.3708 215.667 40.0115 215.667 39.6009C215.667 39.1903 215.77 38.8566 215.951 38.523C216.131 38.1893 216.415 37.9327 216.75 37.753C217.086 37.5734 217.447 37.4707 217.834 37.4707C218.22 37.4707 218.581 37.5734 218.917 37.753ZM218.633 41.0381C218.891 40.8841 219.072 40.6788 219.226 40.4478C219.381 40.1912 219.433 39.9345 219.433 39.6266C219.433 39.3186 219.355 39.0619 219.226 38.8053C219.072 38.5486 218.891 38.369 218.633 38.215C218.375 38.061 218.117 38.0097 217.808 38.0097C217.498 38.0097 217.24 38.0867 216.982 38.215C216.724 38.369 216.544 38.5486 216.389 38.8053C216.234 39.0619 216.183 39.3186 216.183 39.6266C216.183 39.9345 216.26 40.1912 216.389 40.4478C216.544 40.7045 216.724 40.8841 216.982 41.0381C217.24 41.1921 217.498 41.2691 217.808 41.2691C218.117 41.2691 218.375 41.1921 218.633 41.0381ZM218.71 39.4982C218.71 39.4982 218.504 39.6522 218.324 39.6779C218.478 39.6779 218.607 39.7549 218.659 39.8319C218.736 39.9089 218.762 40.0115 218.762 40.1655V40.3452C218.762 40.5505 218.762 40.6788 218.814 40.7558H218.324C218.324 40.7558 218.272 40.5248 218.272 40.3452V40.1912C218.272 40.1912 218.246 39.9859 218.195 39.9345C218.143 39.8832 218.066 39.8575 217.937 39.8575H217.472V40.7815H216.957V38.5486H218.066C218.298 38.5486 218.478 38.6 218.633 38.7026C218.762 38.8053 218.839 38.9593 218.839 39.1646C218.839 39.3186 218.788 39.4469 218.71 39.5496V39.4982ZM218.22 39.3699C218.22 39.3699 218.298 39.2416 218.298 39.1646C218.298 38.9849 218.195 38.9079 218.014 38.9079H217.498V39.4469H218.014C218.014 39.4469 218.22 39.4469 218.246 39.3699H218.22Z" fill="#CBE5C5"/>
</g>
<defs>
<clipPath id="clip0_28_18">
<rect width="220" height="55" fill="white"/>
</clipPath>
</defs>
</svg>
