<svg width="220" height="55" viewBox="0 0 220 55" fill="none" xmlns="http://www.w3.org/2000/svg">
<g clip-path="url(#clip0_1_3)">
<path d="M47.1723 0H15.7327V13.7564H47.1723V0Z" fill="#121612"/>
<path d="M31.4396 13.7564H0V27.5128H31.4396V13.7564Z" fill="#121612"/>
<path d="M47.1723 27.4872H15.7327V41.2436H47.1723V27.4872Z" fill="#121612"/>
<path d="M31.4396 41.2436H0V55H31.4396V41.2436Z" fill="#121612"/>
<path d="M79.6952 26.3836C80.5721 24.8693 81.8359 23.6631 83.4091 22.8161C85.0082 21.9692 86.8394 21.5329 88.9027 21.5329C90.966 21.5329 92.7714 21.9692 94.3447 22.8161C95.9437 23.6631 97.1817 24.8693 98.0586 26.3836C98.9355 27.8978 99.3998 29.6687 99.3998 31.6449C99.3998 33.6211 98.9613 35.392 98.0586 36.9062C97.1817 38.4461 95.9179 39.6267 94.3447 40.4993C92.7456 41.3462 90.9402 41.7825 88.9027 41.7825C86.8652 41.7825 85.0082 41.3462 83.4091 40.4993C81.8101 39.6524 80.5721 38.4461 79.6952 36.9062C78.8183 35.3663 78.354 33.6211 78.354 31.6449C78.354 29.6687 78.7925 27.9235 79.6952 26.3836ZM84.1571 36.4442C85.3177 37.7018 86.9168 38.3178 88.9285 38.3178C90.9402 38.3178 92.5135 37.7018 93.6483 36.4442C94.7831 35.1867 95.3505 33.5954 95.3505 31.6449C95.3505 29.6944 94.7831 28.1288 93.6483 26.8712C92.5135 25.6136 90.9402 24.9977 88.9285 24.9977C86.9168 24.9977 85.3177 25.6136 84.1571 26.8712C82.9965 28.1288 82.4033 29.72 82.4033 31.6449C82.4033 33.5698 82.9965 35.1867 84.1571 36.4442Z" fill="#121612"/>
<path d="M104.352 41.3976V25.3826H100.612V21.9179H105.873C106.647 21.9179 107.266 22.0975 107.705 22.4568C108.143 22.8162 108.375 23.3038 108.375 23.9711V27.0252C108.839 25.434 109.665 24.2021 110.877 23.3038C112.063 22.4055 113.611 21.9692 115.519 21.9692H117.222V25.434H114.256C112.373 25.434 110.903 26.1269 109.871 27.4872C108.814 28.8474 108.298 30.798 108.298 33.2875V41.4489H104.326L104.352 41.3976Z" fill="#121612"/>
<path d="M134.218 41.3976H126.842C124.933 41.3976 123.979 40.448 123.979 38.5488V25.3826H119.594V21.9179H123.979V17.6575L128.028 16.9389V21.9179H133.47V25.3826H128.028V37.9071H134.218V41.3719V41.3976Z" fill="#121612"/>
<path d="M78.0187 13.4741H70.6424C68.7339 13.4741 67.7796 14.4237 67.7796 16.3229V21.9179H64.143V25.3826H67.7796V41.3976H71.8288V25.3826H77.2708V21.9179H71.8288V16.9389H78.0187V13.4741Z" fill="#121612"/>
<path d="M139.66 41.3976V25.3826H135.92V21.9179H141.182C141.955 21.9179 142.574 22.0975 143.013 22.4568C143.451 22.8162 143.683 23.3038 143.683 23.9711V27.0252C144.148 25.434 144.973 24.2021 146.185 23.3038C147.372 22.4055 148.919 21.9692 150.828 21.9692H152.53V25.434H149.564C147.681 25.434 146.211 26.1269 145.179 27.4872C144.122 28.8474 143.606 30.798 143.606 33.2875V41.4489H139.634L139.66 41.3976Z" fill="#121612"/>
<path d="M154.954 26.1269C155.754 24.6384 156.863 23.4834 158.307 22.7135C159.751 21.9435 161.428 21.5329 163.336 21.5329C166.354 21.5329 168.727 22.3798 170.481 24.0737C172.234 25.7676 173.111 28.1031 173.111 31.1059V32.4662H157.766C157.843 34.314 158.385 35.8026 159.365 36.9062C160.345 38.0355 161.737 38.5744 163.543 38.5744C165.09 38.5744 166.328 38.2151 167.283 37.5222C168.237 36.8292 168.882 35.8283 169.191 34.545H173.189C172.776 36.6239 171.77 38.3434 170.197 39.7294C168.624 41.0896 166.431 41.7825 163.62 41.7825C161.531 41.7825 159.751 41.3206 158.256 40.448C156.785 39.5497 155.651 38.3178 154.903 36.7522C154.155 35.1867 153.768 33.4158 153.768 31.4396C153.768 29.4634 154.155 27.6155 154.954 26.1013V26.1269ZM169.14 29.8483C169.036 28.2058 168.469 26.9225 167.437 26.0243C166.406 25.126 165.039 24.664 163.388 24.664C161.815 24.664 160.525 25.126 159.494 26.0243C158.462 26.9482 157.894 28.2058 157.766 29.8483H169.14Z" fill="#121612"/>
<path d="M178.76 39.832C177.135 38.5231 176.31 36.6752 176.31 34.2371H180.359C180.359 35.7256 180.823 36.8292 181.751 37.5735C182.68 38.3178 184.021 38.6771 185.775 38.6771C187.116 38.6771 188.096 38.4718 188.715 38.0611C189.334 37.6505 189.644 36.9832 189.644 36.1106C189.644 35.5203 189.437 35.0327 189.025 34.6477C188.612 34.2627 187.967 33.9291 187.039 33.6468L181.623 32.1325C180.281 31.7732 179.172 31.1829 178.295 30.336C177.419 29.5147 176.98 28.3598 176.98 26.9482C176.98 25.2287 177.676 23.8941 179.043 22.9445C180.41 21.9949 182.319 21.5072 184.743 21.5072C187.374 21.5072 189.463 22.0975 190.959 23.2525C192.455 24.4074 193.203 26.0499 193.203 28.1801H189.154C189.154 27.0509 188.767 26.1783 188.019 25.5366C187.271 24.895 186.188 24.587 184.769 24.587C183.608 24.587 182.706 24.7923 182.035 25.2287C181.365 25.665 181.029 26.2039 181.029 26.8455C181.029 27.4358 181.236 27.9491 181.648 28.3341C182.061 28.7191 182.732 29.0527 183.608 29.3094L188.199 30.567C189.979 31.0289 191.32 31.7219 192.249 32.5945C193.177 33.4671 193.641 34.6734 193.641 36.1876C193.641 37.9841 192.971 39.37 191.604 40.3196C190.237 41.2949 188.251 41.7569 185.646 41.7569C182.628 41.7569 180.307 41.1153 178.682 39.8063L178.76 39.832Z" fill="#121612"/>
<path d="M199.109 39.832C197.484 38.5231 196.659 36.6752 196.659 34.2371H200.708C200.708 35.7256 201.172 36.8292 202.101 37.5735C203.029 38.3178 204.37 38.6771 206.124 38.6771C207.465 38.6771 208.445 38.4718 209.064 38.0611C209.683 37.6505 209.993 36.9832 209.993 36.1106C209.993 35.5203 209.787 35.0327 209.374 34.6477C208.961 34.2627 208.317 33.9291 207.388 33.6468L201.972 32.1325C200.631 31.7732 199.522 31.1829 198.645 30.336C197.768 29.5147 197.329 28.3598 197.329 26.9482C197.329 25.2287 198.026 23.8941 199.393 22.9445C200.76 21.9949 202.668 21.5072 205.093 21.5072C207.723 21.5072 209.812 22.0975 211.308 23.2525C212.804 24.4074 213.552 26.0499 213.552 28.1801H209.503C209.503 27.0509 209.116 26.1783 208.368 25.5366C207.62 24.895 206.537 24.587 205.118 24.587C203.958 24.587 203.055 24.7923 202.385 25.2287C201.714 25.665 201.379 26.2039 201.379 26.8455C201.379 27.4358 201.585 27.9491 201.998 28.3341C202.41 28.7191 203.081 29.0527 203.958 29.3094L208.549 30.567C210.328 31.0289 211.669 31.7219 212.598 32.5945C213.526 33.4671 213.991 34.6734 213.991 36.1876C213.991 37.9841 213.32 39.37 211.953 40.3196C210.586 41.2949 208.6 41.7569 205.995 41.7569C202.978 41.7569 200.656 41.1153 199.032 39.8063L199.109 39.832Z" fill="#121612"/>
<path d="M218.917 37.7531C219.252 37.9328 219.51 38.2151 219.716 38.5231C219.897 38.8567 220 39.216 220 39.601C220 39.986 219.897 40.371 219.716 40.7046C219.51 41.0383 219.252 41.2949 218.917 41.5002C218.581 41.7055 218.22 41.7825 217.834 41.7825C217.447 41.7825 217.086 41.6799 216.75 41.5002C216.415 41.2949 216.157 41.0383 215.951 40.7046C215.744 40.371 215.667 40.0117 215.667 39.601C215.667 39.1904 215.77 38.8567 215.951 38.5231C216.131 38.1894 216.415 37.9328 216.75 37.7531C217.086 37.5735 217.447 37.4708 217.834 37.4708C218.22 37.4708 218.581 37.5735 218.917 37.7531ZM218.633 41.0383C218.891 40.8843 219.072 40.6789 219.226 40.448C219.381 40.1913 219.433 39.9347 219.433 39.6267C219.433 39.3187 219.355 39.0621 219.226 38.8054C219.072 38.5488 218.891 38.3691 218.633 38.2151C218.375 38.0611 218.117 38.0098 217.808 38.0098C217.498 38.0098 217.24 38.0868 216.982 38.2151C216.724 38.3691 216.544 38.5488 216.389 38.8054C216.234 39.0621 216.183 39.3187 216.183 39.6267C216.183 39.9347 216.26 40.1913 216.389 40.448C216.544 40.7046 216.724 40.8843 216.982 41.0383C217.24 41.1922 217.498 41.2692 217.808 41.2692C218.117 41.2692 218.375 41.1922 218.633 41.0383ZM218.71 39.4984C218.71 39.4984 218.504 39.6523 218.324 39.678C218.478 39.678 218.607 39.755 218.659 39.832C218.736 39.909 218.762 40.0117 218.762 40.1656V40.3453C218.762 40.5506 218.762 40.6789 218.814 40.7559H218.324C218.324 40.7559 218.272 40.525 218.272 40.3453V40.1913C218.272 40.1913 218.246 39.986 218.195 39.9347C218.143 39.8833 218.066 39.8577 217.937 39.8577H217.472V40.7816H216.957V38.5488H218.066C218.298 38.5488 218.478 38.6001 218.633 38.7027C218.762 38.8054 218.839 38.9594 218.839 39.1647C218.839 39.3187 218.788 39.447 218.71 39.5497V39.4984ZM218.22 39.37C218.22 39.37 218.298 39.2417 218.298 39.1647C218.298 38.9851 218.195 38.9081 218.014 38.9081H217.498V39.447H218.014C218.014 39.447 218.22 39.447 218.246 39.37H218.22Z" fill="#121612"/>
</g>
<defs>
<clipPath id="clip0_1_3">
<rect width="220" height="55" fill="white"/>
</clipPath>
</defs>
</svg>
